<svg width="164" height="36" viewBox="0 0 164 36" fill="none" xmlns="http://www.w3.org/2000/svg">
<path d="M0 22.1926C0 15.8018 1.03031 9.45273 3.05127 3.38985C4.27895 -0.293191 9.07311 -1.19778 11.5585 1.78465L16.0194 7.13776C18.3638 9.95108 22.6848 9.95107 25.0292 7.13775L29.4901 1.78465C31.9755 -1.19779 36.7697 -0.293192 37.9973 3.38985C40.0183 9.45273 41.0486 15.8018 41.0486 22.1926V24.2718C41.0486 30.7491 35.7977 36 29.3204 36H11.7282C5.25088 36 0 30.7491 0 24.2718V22.1926Z" fill="#6153FF"/>
<path d="M38.7801 23.9196C38.7801 18.4269 34.3273 13.9741 28.8346 13.9741H14.6267C9.13391 13.9741 4.68115 18.4269 4.68115 23.9196C4.68115 29.4124 9.13391 33.8652 14.6267 33.8652H28.8346C34.3273 33.8652 38.7801 29.4124 38.7801 23.9196Z" fill="white"/>
<path d="M35.2967 5.72367L36.7316 11.4632C37.0035 12.5508 35.9675 13.5102 34.9039 13.1557L30.5993 11.7208C29.7105 11.4245 29.3467 10.3643 29.8664 9.58478L32.7362 5.28015C33.4203 4.25386 34.9975 4.52705 35.2967 5.72367Z" fill="white"/>
<path d="M8.16455 5.72367L6.72968 11.4632C6.45776 12.5508 7.49374 13.5102 8.55734 13.1557L12.862 11.7208C13.7507 11.4245 14.1145 10.3643 13.5948 9.58478L10.7251 5.28015C10.0409 4.25386 8.46371 4.52705 8.16455 5.72367Z" fill="white"/>
<path d="M35.9405 22.4989C35.9405 20.9295 34.6683 19.6573 33.0989 19.6573C31.5296 19.6573 30.2574 20.9295 30.2574 22.4989C30.2574 24.0682 31.5296 25.3404 33.0989 25.3404C34.6683 25.3404 35.9405 24.0682 35.9405 22.4989Z" fill="#6153FF"/>
<path d="M18.891 22.4989C18.891 20.9295 17.6188 19.6573 16.0495 19.6573C14.4801 19.6573 13.2079 20.9295 13.2079 22.4989C13.2079 24.0682 14.4801 25.3404 16.0495 25.3404C17.6188 25.3404 18.891 24.0682 18.891 22.4989Z" fill="#6153FF"/>
<path fill-rule="evenodd" clip-rule="evenodd" d="M23.5553 28.5839C24.118 28.0211 25.0304 28.0211 25.5931 28.5839C26.5997 29.5905 28.2318 29.5905 29.2384 28.5839C29.4604 28.3619 29.4604 28.0021 29.2384 27.7802C29.0165 27.5582 28.6566 27.5582 28.4347 27.7802C27.872 28.3429 26.9596 28.3429 26.3968 27.7802C25.3902 26.7735 23.7582 26.7735 22.7515 27.7802C22.1888 28.3429 21.2764 28.3429 20.7137 27.7802C20.4917 27.5582 20.1319 27.5582 19.91 27.7802C19.688 28.0021 19.688 28.3619 19.91 28.5839C20.9166 29.5905 22.5486 29.5905 23.5553 28.5839Z" fill="#6153FF"/>
<path fill-rule="evenodd" clip-rule="evenodd" d="M54.4161 0.102761C55.2328 -0.169464 56.132 0.111439 56.6485 0.800118L61.0485 6.66671L65.4484 0.800118C65.9649 0.111439 66.8642 -0.169464 67.6809 0.102761C68.4975 0.374985 69.0484 1.13925 69.0484 2.0001V17.9999C69.0484 19.1045 68.153 19.9999 67.0484 19.9999C65.9438 19.9999 65.0484 19.1045 65.0484 17.9999V8.00002L62.6485 11.2C62.2708 11.7036 61.678 12 61.0485 12C60.419 12 59.8262 11.7036 59.4485 11.2L57.0485 8.00002V17.9999C57.0485 19.1045 56.1531 19.9999 55.0486 19.9999C53.944 19.9999 53.0486 19.1045 53.0486 17.9999V2.0001C53.0486 1.13925 53.5994 0.374985 54.4161 0.102761Z" fill="#6153FF"/>
<path fill-rule="evenodd" clip-rule="evenodd" d="M102.415 0.102761C103.232 -0.169464 104.131 0.111439 104.648 0.800118L109.048 6.66671L113.448 0.800118C113.964 0.111439 114.864 -0.169464 115.68 0.102761C116.497 0.374985 117.048 1.13925 117.048 2.0001V17.9999C117.048 19.1045 116.152 19.9999 115.048 19.9999C113.943 19.9999 113.048 19.1045 113.048 17.9999V8.00002L110.648 11.2C110.27 11.7036 109.677 12 109.048 12C108.418 12 107.826 11.7036 107.448 11.2L105.048 8.00002V17.9999C105.048 19.1045 104.152 19.9999 103.048 19.9999C101.943 19.9999 101.048 19.1045 101.048 17.9999V2.0001C101.048 1.13925 101.599 0.374985 102.415 0.102761Z" fill="#6153FF"/>
<path fill-rule="evenodd" clip-rule="evenodd" d="M161.68 19.8972C160.863 20.1695 159.964 19.8886 159.447 19.1999L155.047 13.3333L150.647 19.1999C150.131 19.8886 149.232 20.1695 148.415 19.8972C147.598 19.625 147.047 18.8607 147.047 17.9999V4.00008C147.047 2.89552 147.943 2.0001 149.047 2.0001C150.152 2.0001 151.047 2.89552 151.047 4.00008V12L153.447 8.80002C153.825 8.29641 154.418 8.00003 155.047 8.00003C155.677 8.00003 156.27 8.29641 156.647 8.80002L159.047 12V4.00008C159.047 2.89552 159.943 2.0001 161.047 2.0001C162.152 2.0001 163.047 2.89552 163.047 4.00008V17.9999C163.047 18.8607 162.496 19.625 161.68 19.8972Z" fill="#6153FF"/>
<path fill-rule="evenodd" clip-rule="evenodd" d="M79.0482 13.9999V8.00002C79.0482 6.89547 78.1528 6.00005 77.0483 6.00005C75.9437 6.00005 75.0483 6.89547 75.0483 8.00002V13.9999C75.0483 15.1045 75.9437 15.9999 77.0483 15.9999C78.1528 15.9999 79.0482 15.1045 79.0482 13.9999ZM83.0482 8.00002V13.9999C83.0482 17.3136 80.3619 19.9999 77.0483 19.9999C73.7346 19.9999 71.0483 17.3136 71.0483 13.9999V8.00002C71.0483 4.68636 73.7346 2.0001 77.0483 2.0001C80.3619 2.0001 83.0482 4.68636 83.0482 8.00002Z" fill="#6153FF"/>
<path fill-rule="evenodd" clip-rule="evenodd" d="M123.048 8.00002C123.048 9.10458 123.943 10 125.048 10C126.152 10 127.048 9.10458 127.048 8.00002C127.048 6.89547 126.152 6.00005 125.048 6.00005C123.943 6.00005 123.048 6.89547 123.048 8.00002ZM125.048 13.9999C121.734 13.9999 119.048 11.3137 119.048 8.00002C119.048 4.68636 121.734 2.0001 125.048 2.0001C128.361 2.0001 131.048 4.68636 131.048 8.00002C131.048 11.3137 128.361 13.9999 125.048 13.9999Z" fill="#6153FF"/>
<path fill-rule="evenodd" clip-rule="evenodd" d="M141.047 13.9999V8.00002C141.047 6.89547 140.152 6.00005 139.047 6.00005C137.943 6.00005 137.047 6.89547 137.047 8.00002V13.9999C137.047 15.1045 137.943 15.9999 139.047 15.9999C140.152 15.9999 141.047 15.1045 141.047 13.9999ZM145.047 8.00002V13.9999C145.047 17.3136 142.361 19.9999 139.047 19.9999C135.734 19.9999 133.048 17.3136 133.048 13.9999V8.00002C133.048 4.68636 135.734 2.0001 139.047 2.0001C142.361 2.0001 145.047 4.68636 145.047 8.00002Z" fill="#6153FF"/>
<path fill-rule="evenodd" clip-rule="evenodd" d="M119.048 17.9999C119.048 16.8953 119.943 15.9999 121.048 15.9999H129.048C130.152 15.9999 131.048 16.8953 131.048 17.9999C131.048 19.1045 130.152 19.9999 129.048 19.9999H121.048C119.943 19.9999 119.048 19.1045 119.048 17.9999Z" fill="#6153FF"/>
<path fill-rule="evenodd" clip-rule="evenodd" d="M87.0481 2.0001C88.1527 2.0001 89.0481 2.89552 89.0481 4.00008V17.9999C89.0481 19.1045 88.1527 19.9999 87.0481 19.9999C85.9436 19.9999 85.0482 19.1045 85.0482 17.9999V4.00008C85.0482 2.89552 85.9436 2.0001 87.0481 2.0001Z" fill="#6153FF"/>
<path d="M56.7048 34.072C56.5848 34.072 56.4888 34.052 56.4168 34.012C56.3528 33.98 56.3048 33.936 56.2728 33.88C56.2408 33.816 56.2168 33.756 56.2008 33.7L53.7528 26.464C53.6888 26.272 53.6768 26.128 53.7168 26.032C53.7648 25.928 53.8888 25.844 54.0888 25.78C54.2168 25.74 54.3208 25.724 54.4008 25.732C54.4888 25.732 54.5608 25.764 54.6168 25.828C54.6808 25.884 54.7328 25.976 54.7728 26.104L56.7528 32.14L58.5648 26.152C58.5888 26.08 58.6168 26.012 58.6488 25.948C58.6888 25.884 58.7448 25.836 58.8168 25.804C58.8888 25.764 58.9848 25.744 59.1048 25.744C59.2408 25.744 59.3448 25.764 59.4168 25.804C59.4888 25.844 59.5408 25.892 59.5728 25.948C59.6128 25.996 59.6368 26.048 59.6448 26.104L61.4928 32.176L63.4608 26.128C63.5088 25.992 63.5608 25.892 63.6168 25.828C63.6728 25.756 63.7448 25.716 63.8328 25.708C63.9288 25.7 64.0448 25.72 64.1808 25.768C64.3168 25.808 64.4128 25.856 64.4688 25.912C64.5248 25.968 64.5528 26.04 64.5528 26.128C64.5528 26.216 64.5328 26.328 64.4928 26.464L62.0448 33.712C62.0288 33.768 62.0008 33.824 61.9608 33.88C61.9288 33.936 61.8768 33.98 61.8048 34.012C61.7408 34.052 61.6488 34.072 61.5288 34.072C61.4168 34.072 61.3248 34.052 61.2528 34.012C61.1808 33.972 61.1248 33.92 61.0848 33.856C61.0528 33.784 61.0248 33.72 61.0008 33.664L59.1168 27.604L57.2328 33.664C57.2168 33.72 57.1888 33.784 57.1488 33.856C57.1088 33.92 57.0528 33.972 56.9808 34.012C56.9168 34.052 56.8248 34.072 56.7048 34.072ZM67.6829 34.12C67.5229 34.12 67.4029 34.096 67.3229 34.048C67.2509 34.008 67.2029 33.948 67.1789 33.868C67.1549 33.78 67.1429 33.68 67.1429 33.568V26.284C67.1429 26.076 67.1829 25.936 67.2629 25.864C67.3509 25.784 67.5029 25.744 67.7189 25.744H72.5429C72.6549 25.744 72.7509 25.756 72.8309 25.78C72.9109 25.804 72.9709 25.856 73.0109 25.936C73.0509 26.016 73.0709 26.136 73.0709 26.296C73.0709 26.456 73.0469 26.576 72.9989 26.656C72.9589 26.728 72.8989 26.776 72.8189 26.8C72.7389 26.824 72.6429 26.836 72.5309 26.836H68.2229V29.32H71.2229C71.3349 29.32 71.4269 29.332 71.4989 29.356C71.5789 29.38 71.6389 29.428 71.6789 29.5C71.7189 29.572 71.7389 29.684 71.7389 29.836C71.7389 29.98 71.7189 30.088 71.6789 30.16C71.6389 30.232 71.5789 30.28 71.4989 30.304C71.4189 30.32 71.3189 30.328 71.1989 30.328H68.2229V33.04H72.5429C72.6549 33.04 72.7509 33.052 72.8309 33.076C72.9109 33.1 72.9709 33.152 73.0109 33.232C73.0509 33.304 73.0709 33.42 73.0709 33.58C73.0709 33.74 73.0469 33.86 72.9989 33.94C72.9589 34.012 72.8989 34.06 72.8189 34.084C72.7389 34.108 72.6429 34.12 72.5309 34.12H67.6829ZM76.2155 34.12C76.0715 34.12 75.9595 34.092 75.8795 34.036C75.8075 33.988 75.7595 33.916 75.7355 33.82C75.7115 33.716 75.6995 33.604 75.6995 33.484V26.356C75.6995 26.236 75.7115 26.132 75.7355 26.044C75.7675 25.948 75.8195 25.876 75.8915 25.828C75.9715 25.772 76.0835 25.744 76.2275 25.744H79.5755C80.0235 25.744 80.4155 25.844 80.7515 26.044C81.0955 26.244 81.3635 26.516 81.5555 26.86C81.7475 27.204 81.8395 27.58 81.8315 27.988C81.8395 28.196 81.8155 28.4 81.7595 28.6C81.7035 28.8 81.6195 28.988 81.5075 29.164C81.4035 29.332 81.2715 29.472 81.1115 29.584C81.3275 29.72 81.5115 29.896 81.6635 30.112C81.8155 30.328 81.9315 30.568 82.0115 30.832C82.0915 31.096 82.1315 31.372 82.1315 31.66C82.1235 32.004 82.0595 32.328 81.9395 32.632C81.8195 32.928 81.6475 33.188 81.4235 33.412C81.1995 33.636 80.9395 33.812 80.6435 33.94C80.3475 34.06 80.0315 34.12 79.6955 34.12H76.2155ZM76.7795 33.088H79.5755C79.8875 33.088 80.1555 33.028 80.3795 32.908C80.6035 32.788 80.7755 32.612 80.8955 32.38C81.0155 32.148 81.0755 31.864 81.0755 31.528C81.0755 31.24 81.0355 31.008 80.9555 30.832C80.8755 30.656 80.7675 30.524 80.6315 30.436C80.4955 30.34 80.3475 30.272 80.1875 30.232C80.0355 30.192 79.8835 30.172 79.7315 30.172C79.5875 30.164 79.4555 30.16 79.3355 30.16H78.6035C78.4435 30.16 78.3275 30.12 78.2555 30.04C78.1835 29.96 78.1475 29.832 78.1475 29.656C78.1475 29.488 78.1835 29.368 78.2555 29.296C78.3355 29.224 78.4555 29.188 78.6155 29.188H79.3475C79.4755 29.188 79.6195 29.184 79.7795 29.176C79.9395 29.168 80.0955 29.136 80.2475 29.08C80.4075 29.024 80.5355 28.92 80.6315 28.768C80.7355 28.608 80.7875 28.384 80.7875 28.096C80.7875 27.648 80.6675 27.32 80.4275 27.112C80.1875 26.896 79.7915 26.788 79.2395 26.788H76.7795V33.088ZM89.5547 34.12C89.4107 34.12 89.2987 34.092 89.2187 34.036C89.1467 33.988 89.0987 33.916 89.0747 33.82C89.0507 33.716 89.0387 33.604 89.0387 33.484V26.356C89.0387 26.236 89.0507 26.132 89.0747 26.044C89.1067 25.948 89.1587 25.876 89.2307 25.828C89.3107 25.772 89.4227 25.744 89.5667 25.744H92.9147C93.3627 25.744 93.7547 25.844 94.0907 26.044C94.4347 26.244 94.7027 26.516 94.8947 26.86C95.0867 27.204 95.1787 27.58 95.1707 27.988C95.1787 28.196 95.1547 28.4 95.0987 28.6C95.0427 28.8 94.9587 28.988 94.8467 29.164C94.7427 29.332 94.6107 29.472 94.4507 29.584C94.6667 29.72 94.8507 29.896 95.0027 30.112C95.1547 30.328 95.2707 30.568 95.3507 30.832C95.4307 31.096 95.4707 31.372 95.4707 31.66C95.4627 32.004 95.3987 32.328 95.2787 32.632C95.1587 32.928 94.9867 33.188 94.7627 33.412C94.5387 33.636 94.2787 33.812 93.9827 33.94C93.6867 34.06 93.3707 34.12 93.0347 34.12H89.5547ZM90.1187 33.088H92.9147C93.2267 33.088 93.4947 33.028 93.7187 32.908C93.9427 32.788 94.1147 32.612 94.2347 32.38C94.3547 32.148 94.4147 31.864 94.4147 31.528C94.4147 31.24 94.3747 31.008 94.2947 30.832C94.2147 30.656 94.1067 30.524 93.9707 30.436C93.8347 30.34 93.6867 30.272 93.5267 30.232C93.3747 30.192 93.2227 30.172 93.0707 30.172C92.9267 30.164 92.7947 30.16 92.6747 30.16H91.9427C91.7827 30.16 91.6667 30.12 91.5947 30.04C91.5227 29.96 91.4867 29.832 91.4867 29.656C91.4867 29.488 91.5227 29.368 91.5947 29.296C91.6747 29.224 91.7947 29.188 91.9547 29.188H92.6867C92.8147 29.188 92.9587 29.184 93.1187 29.176C93.2787 29.168 93.4347 29.136 93.5867 29.08C93.7467 29.024 93.8747 28.92 93.9707 28.768C94.0747 28.608 94.1267 28.384 94.1267 28.096C94.1267 27.648 94.0067 27.32 93.7667 27.112C93.5267 26.896 93.1307 26.788 92.5787 26.788H90.1187V33.088ZM101.791 34.204C101.223 34.204 100.687 34.096 100.183 33.88C99.687 33.664 99.247 33.364 98.863 32.98C98.487 32.588 98.191 32.14 97.975 31.636C97.759 31.132 97.651 30.588 97.651 30.004C97.651 29.412 97.755 28.856 97.963 28.336C98.171 27.808 98.459 27.348 98.827 26.956C99.203 26.564 99.635 26.256 100.123 26.032C100.611 25.808 101.131 25.696 101.683 25.696C102.259 25.696 102.795 25.804 103.291 26.02C103.795 26.236 104.231 26.54 104.599 26.932C104.975 27.316 105.271 27.768 105.487 28.288C105.703 28.808 105.811 29.364 105.811 29.956C105.811 30.54 105.703 31.088 105.487 31.6C105.279 32.104 104.991 32.556 104.623 32.956C104.255 33.348 103.827 33.656 103.339 33.88C102.859 34.096 102.343 34.204 101.791 34.204ZM101.719 33.112C102.135 33.112 102.523 33.032 102.883 32.872C103.251 32.712 103.571 32.488 103.843 32.2C104.115 31.904 104.327 31.568 104.479 31.192C104.639 30.808 104.719 30.392 104.719 29.944C104.719 29.512 104.639 29.108 104.479 28.732C104.327 28.348 104.111 28.012 103.831 27.724C103.559 27.428 103.243 27.196 102.883 27.028C102.523 26.86 102.139 26.776 101.731 26.776C101.323 26.776 100.939 26.86 100.579 27.028C100.219 27.196 99.899 27.424 99.619 27.712C99.347 28 99.131 28.336 98.971 28.72C98.819 29.104 98.743 29.516 98.743 29.956C98.743 30.388 98.819 30.796 98.971 31.18C99.131 31.564 99.347 31.9 99.619 32.188C99.899 32.476 100.215 32.704 100.567 32.872C100.927 33.032 101.311 33.112 101.719 33.112ZM111.9 34.204C111.332 34.204 110.796 34.096 110.292 33.88C109.796 33.664 109.356 33.364 108.972 32.98C108.596 32.588 108.3 32.14 108.084 31.636C107.868 31.132 107.76 30.588 107.76 30.004C107.76 29.412 107.864 28.856 108.072 28.336C108.28 27.808 108.568 27.348 108.936 26.956C109.312 26.564 109.744 26.256 110.232 26.032C110.72 25.808 111.24 25.696 111.792 25.696C112.368 25.696 112.904 25.804 113.4 26.02C113.904 26.236 114.34 26.54 114.708 26.932C115.084 27.316 115.38 27.768 115.596 28.288C115.812 28.808 115.92 29.364 115.92 29.956C115.92 30.54 115.812 31.088 115.596 31.6C115.388 32.104 115.1 32.556 114.732 32.956C114.364 33.348 113.936 33.656 113.448 33.88C112.968 34.096 112.452 34.204 111.9 34.204ZM111.828 33.112C112.244 33.112 112.632 33.032 112.992 32.872C113.36 32.712 113.68 32.488 113.952 32.2C114.224 31.904 114.436 31.568 114.588 31.192C114.748 30.808 114.828 30.392 114.828 29.944C114.828 29.512 114.748 29.108 114.588 28.732C114.436 28.348 114.22 28.012 113.94 27.724C113.668 27.428 113.352 27.196 112.992 27.028C112.632 26.86 112.248 26.776 111.84 26.776C111.432 26.776 111.048 26.86 110.688 27.028C110.328 27.196 110.008 27.424 109.728 27.712C109.456 28 109.24 28.336 109.08 28.72C108.928 29.104 108.852 29.516 108.852 29.956C108.852 30.388 108.928 30.796 109.08 31.18C109.24 31.564 109.456 31.9 109.728 32.188C110.008 32.476 110.324 32.704 110.676 32.872C111.036 33.032 111.42 33.112 111.828 33.112ZM118.925 34.12C118.765 34.12 118.645 34.096 118.565 34.048C118.493 34.008 118.445 33.948 118.421 33.868C118.397 33.788 118.385 33.692 118.385 33.58V26.272C118.385 26.168 118.397 26.076 118.421 25.996C118.453 25.908 118.505 25.844 118.577 25.804C118.657 25.764 118.777 25.744 118.937 25.744C119.097 25.744 119.213 25.768 119.285 25.816C119.365 25.856 119.417 25.916 119.441 25.996C119.465 26.076 119.477 26.172 119.477 26.284V29.188L123.017 25.912C123.113 25.816 123.201 25.752 123.281 25.72C123.361 25.688 123.441 25.688 123.521 25.72C123.601 25.752 123.689 25.816 123.785 25.912C123.937 26.064 124.009 26.196 124.001 26.308C124.001 26.412 123.929 26.532 123.785 26.668L120.209 29.92L123.833 33.196C123.985 33.34 124.061 33.468 124.061 33.58C124.061 33.692 123.985 33.82 123.833 33.964C123.729 34.06 123.637 34.124 123.557 34.156C123.477 34.188 123.397 34.188 123.317 34.156C123.245 34.124 123.161 34.056 123.065 33.952L119.477 30.652V33.592C119.477 33.704 119.465 33.8 119.441 33.88C119.417 33.96 119.365 34.02 119.285 34.06C119.205 34.1 119.085 34.12 118.925 34.12ZM127.335 34.12C127.191 34.12 127.079 34.096 126.999 34.048C126.927 34 126.875 33.936 126.843 33.856C126.811 33.768 126.795 33.672 126.795 33.568V26.272C126.795 26.168 126.811 26.08 126.843 26.008C126.875 25.928 126.931 25.864 127.011 25.816C127.091 25.768 127.207 25.744 127.359 25.744C127.479 25.744 127.575 25.752 127.647 25.768C127.719 25.784 127.775 25.808 127.815 25.84C127.863 25.864 127.911 25.904 127.959 25.96L131.091 30.496H130.719L133.887 25.924C133.935 25.868 133.983 25.828 134.031 25.804C134.079 25.78 134.139 25.764 134.211 25.756C134.291 25.748 134.383 25.744 134.487 25.744C134.639 25.744 134.751 25.768 134.823 25.816C134.903 25.864 134.959 25.932 134.991 26.02C135.023 26.1 135.039 26.192 135.039 26.296V33.592C135.039 33.688 135.023 33.776 134.991 33.856C134.959 33.936 134.903 34 134.823 34.048C134.743 34.096 134.627 34.12 134.475 34.12C134.331 34.12 134.219 34.096 134.139 34.048C134.067 34 134.015 33.936 133.983 33.856C133.959 33.768 133.947 33.672 133.947 33.568V27.544L131.379 31.324C131.355 31.364 131.323 31.404 131.283 31.444C131.243 31.476 131.191 31.504 131.127 31.528C131.071 31.552 130.999 31.564 130.911 31.564C130.815 31.564 130.739 31.552 130.683 31.528C130.635 31.504 130.591 31.476 130.551 31.444C130.511 31.404 130.471 31.36 130.431 31.312L127.875 27.556V33.592C127.875 33.688 127.859 33.776 127.827 33.856C127.803 33.936 127.751 34 127.671 34.048C127.599 34.096 127.487 34.12 127.335 34.12ZM145.292 33.352C145.356 33.472 145.388 33.576 145.388 33.664C145.396 33.744 145.372 33.82 145.316 33.892C145.26 33.956 145.172 34.016 145.052 34.072C144.86 34.16 144.708 34.18 144.596 34.132C144.492 34.084 144.396 33.968 144.308 33.784L141.308 27.4L138.332 33.772C138.244 33.956 138.144 34.072 138.032 34.12C137.928 34.168 137.776 34.148 137.576 34.06C137.456 34.012 137.368 33.952 137.312 33.88C137.264 33.808 137.244 33.72 137.252 33.616C137.268 33.512 137.308 33.392 137.372 33.256L140.816 26.068C140.864 25.972 140.932 25.896 141.02 25.84C141.116 25.776 141.216 25.744 141.32 25.744C141.392 25.744 141.46 25.756 141.524 25.78C141.588 25.804 141.644 25.84 141.692 25.888C141.74 25.936 141.78 26 141.812 26.08L145.292 33.352ZM139.052 31.732L139.46 30.808H143.18L143.576 31.732H139.052ZM148.305 34.12C148.153 34.12 148.037 34.096 147.957 34.048C147.877 34.008 147.825 33.948 147.801 33.868C147.785 33.78 147.777 33.68 147.777 33.568V26.272C147.777 26.168 147.789 26.08 147.813 26.008C147.845 25.928 147.897 25.864 147.969 25.816C148.049 25.768 148.165 25.744 148.317 25.744H150.969C151.361 25.744 151.717 25.804 152.037 25.924C152.365 26.036 152.649 26.204 152.889 26.428C153.129 26.652 153.313 26.936 153.441 27.28C153.577 27.616 153.645 28.008 153.645 28.456C153.645 28.736 153.601 29.028 153.513 29.332C153.425 29.628 153.289 29.908 153.105 30.172C152.929 30.436 152.701 30.656 152.421 30.832C152.141 31.008 151.801 31.108 151.401 31.132H148.857V33.58C148.857 33.692 148.841 33.788 148.809 33.868C148.785 33.948 148.733 34.008 148.653 34.048C148.581 34.096 148.465 34.12 148.305 34.12ZM153.453 33.988C153.285 34.1 153.141 34.136 153.021 34.096C152.909 34.056 152.801 33.96 152.697 33.808L150.777 30.736L151.965 30.556L153.621 33.196C153.701 33.324 153.749 33.432 153.765 33.52C153.789 33.608 153.773 33.688 153.717 33.76C153.669 33.832 153.581 33.908 153.453 33.988ZM148.857 30.076H151.233C151.417 30.076 151.589 30.044 151.749 29.98C151.909 29.908 152.049 29.804 152.169 29.668C152.289 29.532 152.385 29.364 152.457 29.164C152.529 28.964 152.565 28.724 152.565 28.444C152.565 28.1 152.501 27.808 152.373 27.568C152.253 27.328 152.073 27.148 151.833 27.028C151.593 26.9 151.297 26.836 150.945 26.836H148.857V30.076ZM157.041 34.12C156.881 34.12 156.761 34.096 156.681 34.048C156.609 34.008 156.561 33.948 156.537 33.868C156.513 33.788 156.501 33.692 156.501 33.58V26.272C156.501 26.168 156.513 26.076 156.537 25.996C156.569 25.908 156.621 25.844 156.693 25.804C156.773 25.764 156.893 25.744 157.053 25.744C157.213 25.744 157.329 25.768 157.401 25.816C157.481 25.856 157.533 25.916 157.557 25.996C157.581 26.076 157.593 26.172 157.593 26.284V29.188L161.133 25.912C161.229 25.816 161.317 25.752 161.397 25.72C161.477 25.688 161.557 25.688 161.637 25.72C161.717 25.752 161.805 25.816 161.901 25.912C162.053 26.064 162.125 26.196 162.117 26.308C162.117 26.412 162.045 26.532 161.901 26.668L158.325 29.92L161.949 33.196C162.101 33.34 162.177 33.468 162.177 33.58C162.177 33.692 162.101 33.82 161.949 33.964C161.845 34.06 161.753 34.124 161.673 34.156C161.593 34.188 161.513 34.188 161.433 34.156C161.361 34.124 161.277 34.056 161.181 33.952L157.593 30.652V33.592C157.593 33.704 157.581 33.8 157.557 33.88C157.533 33.96 157.481 34.02 157.401 34.06C157.321 34.1 157.201 34.12 157.041 34.12Z" fill="#6153FF"/>
</svg>
